<?xml version="1.0"?>
<svg xmlns:rdf="http://www.w3.org/1999/02/22-rdf-syntax-ns#" xmlns="http://www.w3.org/2000/svg" xmlns:cc="http://web.resource.org/cc/" xmlns:xlink="http://www.w3.org/1999/xlink" xmlns:dc="http://purl.org/dc/elements/1.1/" xmlns:svg="http://www.w3.org/2000/svg" id="svg2" height="297mm" width="210mm">
  <defs id="defs4">
    <linearGradient id="linearGradient5088">
      <stop id="stop5090" stop-color="#898989" offset="0"/>
      <stop id="stop5096" stop-color="#e6e6e6" offset=".5"/>
      <stop id="stop5092" stop-color="#a4a4a4" offset="1"/>
    </linearGradient>
    <linearGradient id="linearGradient5112" y2="527.76" gradientUnits="userSpaceOnUse" x2="508.16" gradientTransform="translate(6.8569e-7 -169.24)" y1="523.65" x1="172.58">
      <stop id="stop5108" stop-color="#800000" offset="0"/>
      <stop id="stop6083" stop-color="#ff0c0c" offset=".5"/>
      <stop id="stop5110" stop-color="#800000" offset="1"/>
    </linearGradient>
    <filter id="filter10017">
      <feGaussianBlur id="feGaussianBlur10019" stdDeviation="2.7704859"/>
    </filter>
    <linearGradient id="linearGradient11010" y2="683.91" xlink:href="#linearGradient5088" spreadMethod="reflect" gradientUnits="userSpaceOnUse" x2="276.68" gradientTransform="matrix(1.0033 0 0 1 -4.1839 -173.87)" y1="615.42" x1="156.15"/>
    <linearGradient id="linearGradient11018" y2="533.55" xlink:href="#linearGradient5088" spreadMethod="reflect" gradientUnits="userSpaceOnUse" x2="330.59" gradientTransform="matrix(1 0 0 -1 -2.3183 975.86)" y1="450" x1="45.442"/>
    <linearGradient id="linearGradient11020" y2="740.38" xlink:href="#linearGradient5088" spreadMethod="reflect" gradientUnits="userSpaceOnUse" x2="300.03" gradientTransform="matrix(1 0 0 -1 -2.3183 975.86)" y1="707.51" x1="166.4"/>
    <filter id="filter5135">
      <feGaussianBlur id="feGaussianBlur5137" stdDeviation="14.530725"/>
    </filter>
    <linearGradient id="linearGradient11333" y2="638.46" xlink:href="#linearGradient5088" spreadMethod="reflect" gradientUnits="userSpaceOnUse" x2="803.15" gradientTransform="matrix(1.0033 0 0 1 -455.51 -134.51)" y1="591.23" x1="719.46"/>
    <radialGradient id="radialGradient12314" gradientUnits="userSpaceOnUse" cy="586.54" cx="-184.38" r="73.397">
      <stop id="stop12310" stop-color="#fff" offset="0"/>
      <stop id="stop12316" stop-color="#cbcbcb" offset=".77778"/>
      <stop id="stop12312" stop-color="#8c8c8c" offset="1"/>
    </radialGradient>
    <radialGradient id="radialGradient13338" gradientUnits="userSpaceOnUse" cy="518.42" cx="426.2" gradientTransform="matrix(.98720 .68634 -.89224 1.2833 447.71 -433.28)" r="29.133">
      <stop id="stop13332" stop-color="#fff" offset="0"/>
      <stop id="stop13334" stop-color="#fff" stop-opacity="0" offset="1"/>
    </radialGradient>
    <filter id="filter3321">
      <feGaussianBlur id="feGaussianBlur3323" stdDeviation="3.84278"/>
    </filter>
    <filter id="filter19010">
      <feGaussianBlur id="feGaussianBlur19012" stdDeviation="18.196849"/>
    </filter>
  </defs>
  <g id="layer1">
    <path id="path11053" opacity=".71374" style="color:#000000" d="m630.5 480.22c0 121.07-98.26 219.33-219.33 219.33-121.08 0-219.34-98.26-219.34-219.33 0-121.08 98.26-219.34 219.34-219.34 121.07 0 219.33 98.26 219.33 219.34z" transform="matrix(.84878 0 0 .84878 -1076.5 249.36)" filter="url(#filter5135)" fill="none"/>
    <g id="g19985">
      <rect id="rect19014" style="color:#000000" fill-rule="evenodd" ry="4.052" height="802.01" filter="url(#filter10017)" width="671.12" y="169.6" x="66.834" fill="#fff"/>
      <path id="path17042" style="color:#000000" d="m171.01 266.28c-1.3 0-2.34 1.15-2.34 2.56v376.28c0 145.1 234.73 261.53 240.5 261.91 5.76 0.37 240.53-116.81 240.53-261.91v-376.28c0-1.41-1.08-2.56-2.38-2.56h-476.31z" fill-rule="evenodd" filter="url(#filter19010)" fill="#414141"/>
      <path id="path2167" d="m149.44 245.17v217.37c0.75-0.08 1.51-0.12 2.28-0.12h184.25v-217.25h-186.53zm227.37 0v217.25h185.38v-217.25h-185.38zm-227.37 261v83.72c0 54.15 49.21 113.96 105.18 158.53 27.99 22.28 56.63 40.62 78.29 53.19 1.07 0.62 2.03 1.16 3.06 1.75v-297.07h-184.25c-0.77 0-1.53-0.04-2.28-0.12zm227.37 0.12v296.69c0.65-0.37 1.24-0.71 1.91-1.09 21.62-12.51 50.23-30.83 78.22-53.16 55.98-44.65 105.25-104.7 105.25-158.84v-83.6h-185.38z" style="color:#000000" fill="url(#linearGradient5112)" fill-rule="evenodd"/>
      <path id="path10994" style="color:#000000" d="m151.22 243.97v213.9c0.74-0.08 1.5-0.12 2.26-0.12h3.19v-208.3h177.23v-5.48h-182.68zm225.11 0v217.78h5.45v-212.3h178.08v-5.48h-183.53zm-225.11 261.64v83.92c0 42.68 30.12 88.84 69.92 128.35-37.08-38.26-64.47-82.15-64.47-122.86v-83.93c0.74 0.09 1.49 0.13 2.26 0.13h176.97v-5.49h-182.42c-0.76 0-1.52-0.04-2.26-0.12zm225.11 0.12v297.42c0.65-0.37 1.23-0.71 1.89-1.1 1.14-0.66 2.38-1.43 3.56-2.13v-288.7h178.08v-5.49h-183.53z" fill-rule="evenodd" filter="url(#filter10017)" fill="#500"/>
      <path id="path10990" style="color:#000000" d="m115.32 206.4c-1.3 0-2.35 1.15-2.35 2.57v376.28c0 145.1 234.73 261.53 240.5 261.9 5.76 0.38 240.53-116.8 240.53-261.9v-376.28c0-1.42-1.07-2.57-2.37-2.57h-476.31zm31.81 34.13h186.53v217.25h-184.25c-0.77 0-1.53 0.04-2.28 0.12v-217.37zm227.37 0h185.38v217.25h-185.38v-217.25zm-227.37 261c0.75 0.08 1.51 0.12 2.28 0.12h184.25v297.07c-1.03-0.59-1.98-1.13-3.06-1.75-21.66-12.57-50.3-30.91-78.28-53.19-55.98-44.57-105.19-104.38-105.19-158.53v-83.72zm227.37 0.12h185.38v83.6c0 54.14-49.27 114.19-105.25 158.84-27.99 22.33-56.6 40.65-78.22 53.16-0.66 0.38-1.26 0.72-1.91 1.09v-296.69z" fill-rule="evenodd" stroke="url(#linearGradient11020)" stroke-width="4.6228px" fill="url(#linearGradient11018)"/>
      <path id="path10996" d="m145.74 238.49v220.44c0.75-0.08 1.52-0.12 2.29-0.12h3.23v-214.83h183.63v-5.49h-189.15zm228.13 0v218.32h5.52v-212.83h180.47v-5.49h-185.99zm-228.13 262.28v84.13c0 42.78 30.53 89.06 70.86 128.66-37.58-38.35-65.34-82.35-65.34-123.16v-84.13c0.75 0.08 1.52 0.12 2.29 0.12h179.34v-5.49h-184.86c-0.77 0-1.54-0.04-2.29-0.13zm228.13 0.13v298.14c0.65-0.37 1.25-0.71 1.92-1.1 1.15-0.67 2.41-1.43 3.6-2.13v-289.42h180.47v-5.49h-185.99z" style="color:#000000" fill="url(#linearGradient11010)" fill-rule="evenodd"/>
      <path id="path11321" style="color:#000000" d="m409.42 432.73c11.1 12.82 17.85 29.51 17.91 47.78v0.22c0 40.52-32.9 73.41-73.41 73.41-18.37 0-35.12-6.8-48-17.97 13.46 15.52 33.29 25.38 55.44 25.38 40.51 0 73.4-32.9 73.4-73.41v-0.22c-0.07-22.04-9.9-41.78-25.34-55.19z" fill-rule="evenodd" filter="url(#filter10017)" fill="#333"/>
      <path id="path10998" style="color:#000000" d="m-96.854 603.66a73.397 73.397 0 1 1 0 -0.23" fill-rule="evenodd" transform="translate(529.13 -120.46)" fill="#b3b3b3"/>
      <path id="path11326" style="color:#000000" d="m-96.854 603.66a73.397 73.397 0 1 1 0 -0.23" fill-rule="evenodd" transform="matrix(.92850 0 0 .91956 516.96 -72.554)" fill="url(#radialGradient12314)"/>
      <path id="path11335" d="m360.2 411.11c-40.51 0-73.4 32.89-73.4 73.41 0 40.51 32.89 73.4 73.4 73.4 40.52 0 73.38-32.89 73.38-73.4v-0.22c-0.13-40.44-32.94-73.19-73.38-73.19zm0 5.25c37.55 0 68.01 30.1 68.13 67.28v0.22c0 37.25-30.51 67.5-68.13 67.5-37.61 0-68.15-30.25-68.15-67.5 0-37.26 30.54-67.5 68.15-67.5z" style="color:#000000" fill="#333" fill-rule="evenodd"/>
      <path id="path11328" d="m357.58 408.48c-40.51 0-73.41 32.9-73.41 73.41 0 40.52 32.9 73.41 73.41 73.41 40.52 0 73.38-32.89 73.38-73.41v-0.22c-0.13-40.43-32.94-73.19-73.38-73.19zm0 5.25c37.54 0 68.01 30.1 68.13 67.29v0.21c0 37.26-30.51 67.5-68.13 67.5s-68.16-30.24-68.16-67.5c0-37.25 30.54-67.5 68.16-67.5z" style="color:#000000" fill="url(#linearGradient11333)" fill-rule="evenodd"/>
      <path id="path12318" d="m413.43 487.31c12.33-1.66 13.45 11.78 2.49 28.41-10.95 16.62-25.96 26.27-38.29 27.93s-17.34-6.59-6.39-23.22c10.94-16.59 29.78-31.4 42.12-33.11" style="color:#000000" fill="url(#radialGradient13338)" fill-rule="evenodd"/>
      <path id="path5586" style="color:#000000" d="m142.37 165.39l-11.69-2.31 10.47 68.42-19.23-66.59-9.79 6.78 2.31-11.69-69.047 11.11 67.227-19.86-6.79-9.8 11.69 2.31-9.84-65.894 18.6 64.074 9.79-6.79-2.31 11.69 67.79-6.69-65.97 15.45 6.79 9.79z" transform="matrix(.25394 0 0 .24933 182.23 168.16)" filter="url(#filter3321)" fill="#fff"/>
      <path id="path17038" style="color:#000000" d="m142.37 165.39l-11.69-2.31 10.47 68.42-19.23-66.59-9.79 6.78 2.31-11.69-69.047 11.11 67.227-19.86-6.79-9.8 11.69 2.31-9.84-65.894 18.6 64.074 9.79-6.79-2.31 11.69 67.79-6.69-65.97 15.45 6.79 9.79z" transform="matrix(.25394 0 0 .24933 449.42 684.51)" filter="url(#filter3321)" fill="#fff"/>
      <path id="path17040" style="color:#000000" d="m142.37 165.39l-11.69-2.31 10.47 68.42-19.23-66.59-9.79 6.78 2.31-11.69-69.047 11.11 67.227-19.86-6.79-9.8 11.69 2.31-9.84-65.894 18.6 64.074 9.79-6.79-2.31 11.69 67.79-6.69-65.97 15.45 6.79 9.79z" transform="matrix(.25394 0 0 .24933 312.96 374.01)" filter="url(#filter3321)" fill="#fff"/>
    </g>
  </g>
  <metadata>
    <rdf:RDF>
      <cc:Work>
        <dc:format>image/svg+xml</dc:format>
        <dc:type rdf:resource="http://purl.org/dc/dcmitype/StillImage"/>
        <cc:license rdf:resource="http://creativecommons.org/licenses/publicdomain/"/>
        <dc:publisher>
          <cc:Agent rdf:about="http://openclipart.org/">
            <dc:title>Openclipart</dc:title>
          </cc:Agent>
        </dc:publisher>
        <dc:title>weapon shield</dc:title>
        <dc:date>2007-04-30T12:59:15</dc:date>
        <dc:description>A red shield. Part of a set.</dc:description>
        <dc:source>http://openclipart.org/detail/4242/weapon-shield-by-chrisdesign</dc:source>
        <dc:creator>
          <cc:Agent>
            <dc:title>Chrisdesign</dc:title>
          </cc:Agent>
        </dc:creator>
        <dc:subject>
          <rdf:Bag>
            <rdf:li>armor</rdf:li>
            <rdf:li>clip art</rdf:li>
            <rdf:li>clipart</rdf:li>
            <rdf:li>color</rdf:li>
            <rdf:li>icon</rdf:li>
            <rdf:li>icons</rdf:li>
            <rdf:li>medieval</rdf:li>
            <rdf:li>metal</rdf:li>
            <rdf:li>metallic</rdf:li>
            <rdf:li>red</rdf:li>
            <rdf:li>shield</rdf:li>
            <rdf:li>war</rdf:li>
            <rdf:li>weapon</rdf:li>
          </rdf:Bag>
        </dc:subject>
      </cc:Work>
      <cc:License rdf:about="http://creativecommons.org/licenses/publicdomain/">
        <cc:permits rdf:resource="http://creativecommons.org/ns#Reproduction"/>
        <cc:permits rdf:resource="http://creativecommons.org/ns#Distribution"/>
        <cc:permits rdf:resource="http://creativecommons.org/ns#DerivativeWorks"/>
      </cc:License>
    </rdf:RDF>
  </metadata>
</svg>
